<svg width="25" height="24" viewBox="0 0 25 24" fill="none" xmlns="http://www.w3.org/2000/svg">
<path d="M24.06 21.4452L19.4149 16.7981C22.8906 12.1533 21.9429 5.57035 17.2981 2.09463C12.6533 -1.38109 6.07034 -0.433377 2.59462 4.2114C-0.881103 8.85617 0.0666122 15.4392 4.71139 18.9149C8.44245 21.7069 13.567 21.7069 17.2981 18.9149L21.9452 23.562C22.5292 24.146 23.476 24.146 24.06 23.562C24.644 22.978 24.644 22.0312 24.06 21.4472L24.06 21.4452ZM11.0435 18.018C6.91542 18.018 3.56901 14.6715 3.56901 10.5435C3.56901 6.41543 6.91542 3.06902 11.0435 3.06902C15.1715 3.06902 18.5179 6.41543 18.5179 10.5435C18.5136 14.6697 15.1697 18.0136 11.0435 18.018Z" fill="#9B9B9B"/>
</svg>
