<svg width="33" height="32" viewBox="0 0 33 32" fill="none" xmlns="http://www.w3.org/2000/svg">
<path d="M31.916 28.5936L25.722 22.3975C30.3567 16.2045 29.0929 7.42712 22.8994 2.79283C16.7058 -1.84147 7.92775 -0.577851 3.29306 5.61519C-1.34163 11.8082 -0.0778992 20.5856 6.11566 25.2199C11.0908 28.9425 17.9241 28.9425 22.8994 25.2199L29.096 31.416C29.8748 32.1947 31.1373 32.1947 31.916 31.416C32.6947 30.6374 32.6947 29.3749 31.916 28.5963L31.916 28.5936ZM14.5592 24.0239C9.05462 24.0239 4.59236 19.5621 4.59236 14.058C4.59236 8.5539 9.05462 4.09201 14.5592 4.09201C20.0637 4.09201 24.526 8.5539 24.526 14.058C24.5201 19.5596 20.0613 24.0181 14.5592 24.0239Z" fill="#9B9B9B"/>
</svg>
